<?xml version="1.0" encoding="UTF-8"?>
<!DOCTYPE svg PUBLIC "-//W3C//DTD SVG 1.1//EN" "http://www.w3.org/Graphics/SVG/1.1/DTD/svg11.dtd">
<svg version="1.1" xmlns="http://www.w3.org/2000/svg" xmlns:xlink="http://www.w3.org/1999/xlink" width="24" height="24"  xml:space="preserve" id="reverifyIcon">
    <!-- Generated by PaintCode - http://www.paintcodeapp.com -->
    <g id="reverifyIcon-group" transform="translate(2, 2) scale(0.83, 0.83)" >
        <g id="reverifyIcon-group2" transform="translate(7, 7) scale(1.38, 1.38)" >
            <path id="reverifyIcon-bezier" stroke="none" fill="rgb(0, 0, 0)" d="M 1.51,4.31 L 3.82,6.45 2.67,6.61 6.36,0.61 C 6.58,0.25 7.04,0.14 7.39,0.36 7.75,0.58 7.86,1.04 7.64,1.39 L 3.95,7.39 C 3.7,7.8 3.14,7.87 2.8,7.55 L 0.49,5.41 C 0.19,5.12 0.17,4.65 0.45,4.35 0.73,4.04 1.21,4.03 1.51,4.31 Z M 1.51,4.31" />
        </g>
        <path id="reverifyIcon-bezier2" stroke="none" fill="rgb(0, 0, 0)" d="M 11.75,3.75 L 13.75,3.75 M 14.25,1.19 C 14.57,1.51 14.57,1.99 14.28,2.28 14.28,2.28 13.93,2.63 13.53,3.03 18.55,3.43 22.5,7.63 22.5,12.75 22.5,18.13 18.13,22.5 12.75,22.5 7.37,22.5 3,18.13 3,12.75 3,9.28 4.82,6.23 7.55,4.5 7.94,4.26 8.77,5.51 8.43,5.72 6.07,7.17 4.5,9.78 4.5,12.75 4.5,17.31 8.19,21 12.75,21 17.31,21 21,17.31 21,12.75 21,8.48 17.76,4.97 13.6,4.54 13.98,4.92 14.28,5.22 14.28,5.22 14.57,5.51 14.57,5.99 14.28,6.28 13.99,6.57 13.51,6.57 13.22,6.28 L 11.22,4.28 10.69,3.75 11.22,3.22 13.22,1.22 C 13.51,0.93 13.99,0.93 14.28,1.22 L 14.25,1.19 Z M 14.25,1.19" />
    </g>
</svg>
